<?xml version="1.0" standalone="no"?>
<!DOCTYPE svg PUBLIC "-//W3C//DTD SVG 20010904//EN"
 "http://www.w3.org/TR/2001/REC-SVG-20010904/DTD/svg10.dtd">
<svg version="1.0" xmlns="http://www.w3.org/2000/svg"
 width="512.000000pt" height="512.000000pt" viewBox="0 0 512.000000 512.000000"
 preserveAspectRatio="xMidYMid meet">
<metadata>
Created by potrace 1.14, written by Peter Selinger 2001-2017
</metadata>
<g transform="translate(0.000000,512.000000) scale(0.100000,-0.100000)"
fill="#000000" stroke="none">
<path d="M475 5079 c-231 -30 -363 -142 -422 -359 -17 -61 -18 -185 -18 -2175
0 -1985 1 -2114 18 -2174 38 -138 115 -238 220 -286 127 -58 -18 -55 2287 -55
2328 0 2179 -4 2302 62 101 54 169 146 205 280 16 58 18 216 21 2088 2 1342
-1 2064 -7 2141 -24 265 -122 397 -347 465 -56 17 -166 18 -2124 20 -1165 1
-2096 -2 -2135 -7z m2421 -240 c95 -13 203 -51 270 -95 50 -34 119 -116 156
-187 62 -122 76 -332 34 -499 -44 -172 -105 -302 -230 -488 -125 -185 -261
-311 -400 -368 -89 -36 -237 -43 -333 -14 -210 64 -335 253 -365 552 -26 271
36 560 161 750 183 278 411 390 707 349z m-1525 -219 c96 -18 195 -76 290
-170 127 -126 172 -215 204 -410 40 -235 -16 -596 -123 -805 -22 -43 -62 -96
-102 -136 -104 -105 -213 -149 -370 -149 -188 1 -328 56 -451 179 -88 88 -145
193 -180 332 -19 74 -21 102 -16 244 8 223 46 385 129 550 96 190 233 308 409
355 85 22 134 24 210 10z m2934 -630 c188 -72 325 -237 357 -427 23 -139 -11
-250 -134 -439 -142 -218 -298 -355 -543 -475 -289 -142 -489 -163 -658 -72
-135 74 -217 254 -217 480 0 68 6 103 31 177 80 240 229 466 382 582 106 80
298 167 428 194 24 5 100 8 169 6 102 -2 136 -7 185 -26z m-1940 -985 c145
-37 281 -106 397 -204 156 -131 254 -259 297 -388 17 -51 23 -105 31 -285 15
-331 25 -393 79 -482 114 -187 191 -361 231 -521 76 -305 -107 -659 -430 -834
-119 -64 -178 -76 -370 -75 -144 1 -177 4 -261 26 -245 66 -402 170 -614 407
-183 206 -248 246 -495 306 -207 50 -301 80 -385 123 -189 94 -325 234 -464
475 -64 112 -90 175 -107 264 -37 193 0 366 115 540 136 206 342 333 630 390
66 13 146 17 346 18 299 1 282 -3 453 102 269 165 355 187 547 138z m2178
-491 c84 -22 132 -48 193 -106 106 -100 154 -210 154 -352 0 -139 -48 -257
-166 -404 -205 -257 -518 -422 -829 -439 -87 -4 -123 -2 -167 11 -120 34 -243
148 -311 286 -29 59 -32 72 -30 150 5 181 82 367 207 494 113 115 327 257 476
316 139 56 353 75 473 44z"/>
</g>
</svg>
